<svg width="20" height="20" xmlns="http://www.w3.org/2000/svg">
<circle cx="10" cy="10" r="9" stroke="#079560" stroke-width="1" fill="#079560"/>
  <path style="fill:white;fill-opacity:1;" d="M 13.2598,6.58635 8.42528,11.40562 6.76028,9.71888 C 6.51956,9.5180733 6.28218,9.41767 6.04814,9.41767 5.8141067,9.41767 5.5633567,9.5180733 5.29589,9.71888 5.0952833,10 4.9983267,10.271083 5.00502,10.53213 c 0.00667,0.26104 0.11031,0.471883 0.31093,0.63253 l 2.38716,2.40964 c 0.24072,0.2008 0.5015033,0.3012 0.78235,0.3012 0.28084,0 0.5015,-0.1004 0.66198,-0.3012 l 0.0201,0 5.524341,-5.6675353 C 15.199662,7.3478056 14.827995,6.7252711 14.674931,6.5787563 14.521867,6.4322415 13.835901,6.0147732 13.2598,6.58635 z" />

</svg>