<svg width="100" height="100" xmlns="http://www.w3.org/2000/svg">

<ellipse cx="50" cy="30" rx="40" ry="25" style="fill:yellow;stroke:black;stroke-width:2" />

<path d = "M 28 47 A 29 20 0 0 1 33 11 C27 30 45 20 45 8 L47 13 h3 v38 Q40 25 36 42 Q22 30 28 47" style="fill:black;stroke:black;stroke-width:0.5"/>
<path transform="translate(100,0) scale(-1,1)" d = "M 28 47 A 29 20 0 0 1 33 11 C27 30 45 20 45 8 L47 13 h3 v38 Q40 25 36 42 Q22 30 28 47" style="fill:black;stroke:black;stroke-width:0.5"/>


</svg>