<svg width="100" height="100" xmlns="http://www.w3.org/2000/svg">
<circle cx="50" cy="50" r="49" fill="#D54a22" stroke="#079d60" stroke-width="2px"/>
<circle cx="50" cy="50" r="35" fill="#079d60" stroke="white" stroke-width="2px"/>
<circle cx="50" cy="50" r="15" fill="#cba5a8" stroke="white" stroke-width="2px"/>
<circle cx="50" cy="50" r="3" fill="white" stroke="white" stroke-width="2px"/>
<path d="M 50 50 L 65 50" stroke="red" />
<path d="M 50 50 L 50 35" stroke="red" />
<path d="M 50 50 L 35 50" stroke="red" />
<path d="M 50 50 L 50 65" stroke="red" />
<path d="M 50 35 A 10 10 0 0 1 65 50"  fill="transparent" stroke="black"  stroke-width="1px"/>
<path d="M 50 35 A 10 10 0 0 0 35 50"  fill="transparent" stroke="black"  stroke-width="1px"/>
<path d="M 35 50 A 10 10 0 0 0 50 65"  fill="transparent" stroke="black"  stroke-width="1px"/>
<path d="M 50 65 A 10 10 0 0 0 65 50"  fill="transparent" stroke="black"  stroke-width="1px"/>
<circle cx="50" cy="35" r="2" fill="red" stroke="white" stroke-width="1px"/>
<circle cx="35" cy="50" r="2" fill="red" stroke="white" stroke-width="1px"/>
<circle cx="65" cy="50" r="2" fill="red" stroke="white" stroke-width="1px"/>
<circle cx="50" cy="65" r="2" fill="red" stroke="white" stroke-width="1px"/>
<circle cx="50" cy="50" r="1"/>
</svg>